<?xml version="1.0" encoding="UTF-8" standalone="no"?>
<svg
   width="16"
   height="16"
   version="1.1"
   id="svg4"
   sodipodi:docname="bot-user-symbolic.svg"
   inkscape:version="1.1.1 (3bf5ae0d25, 2021-09-20)"
   xmlns:inkscape="http://www.inkscape.org/namespaces/inkscape"
   xmlns:sodipodi="http://sodipodi.sourceforge.net/DTD/sodipodi-0.dtd"
   xmlns="http://www.w3.org/2000/svg"
   xmlns:svg="http://www.w3.org/2000/svg">
  <defs
     id="defs8" />
  <sodipodi:namedview
     id="namedview6"
     pagecolor="#ffffff"
     bordercolor="#111111"
     borderopacity="1"
     inkscape:pageshadow="0"
     inkscape:pageopacity="0"
     inkscape:pagecheckerboard="1"
     showgrid="false"
     inkscape:zoom="50.125"
     inkscape:cx="7.8902743"
     inkscape:cy="8"
     inkscape:window-width="1920"
     inkscape:window-height="1011"
     inkscape:window-x="0"
     inkscape:window-y="0"
     inkscape:window-maximized="1"
     inkscape:current-layer="svg4" />
  <path
     d="M 4,1 C 2.338,1 1,2.338 1,4 v 6 c 0,1.662 1.338,3 3,3 h 8 c 1.662,0 3,-1.338 3,-3 V 4 C 15,2.338 13.662,1 12,1 Z M 6,4 C 6.558,4 7.031,4.473 7.031,5.031 V 6 C 7.031,6.558 6.558,7 6,7 5.442,7 5,6.558 5,6 V 5.031 C 5,4.473 5.442,4 6,4 Z m 4,0 c 0.558,0 1,0.473 1,1.031 V 6 C 11,6.558 10.558,7 10,7 9.442,7 9,6.558 9,6 V 5.031 C 9,4.473 9.442,4 10,4 Z M 8,14 c -5,0 -5,1 -5,1 0,1 1,1 1,1 h 8 c 1,0 1,-1 1,-1 0,0 0,-1 -5,-1 z"
     fill="#474747"
     id="path2"
     sodipodi:nodetypes="ssssssssssssssssssssssssccscs" />
</svg>
