<?xml version="1.0" encoding="UTF-8" standalone="no"?>
<svg
   height="16px"
   viewBox="0 0 16 16"
   width="16px"
   version="1.1"
   id="svg734"
   sodipodi:docname="repost-symbolic.svg"
   inkscape:version="1.2.1 (9c6d41e410, 2022-07-14)"
   xmlns:inkscape="http://www.inkscape.org/namespaces/inkscape"
   xmlns:sodipodi="http://sodipodi.sourceforge.net/DTD/sodipodi-0.dtd"
   xmlns:xlink="http://www.w3.org/1999/xlink"
   xmlns="http://www.w3.org/2000/svg"
   xmlns:svg="http://www.w3.org/2000/svg">
  <defs
     id="defs738" />
  <sodipodi:namedview
     id="namedview736"
     pagecolor="#ffffff"
     bordercolor="#666666"
     borderopacity="1.0"
     inkscape:showpageshadow="2"
     inkscape:pageopacity="0.0"
     inkscape:pagecheckerboard="0"
     inkscape:deskcolor="#d1d1d1"
     showgrid="true"
     inkscape:zoom="29.5"
     inkscape:cx="-0.59322034"
     inkscape:cy="9.8135593"
     inkscape:window-width="2560"
     inkscape:window-height="1372"
     inkscape:window-x="0"
     inkscape:window-y="32"
     inkscape:window-maximized="1"
     inkscape:current-layer="g732">
    <inkscape:grid
       type="xygrid"
       id="grid884" />
  </sodipodi:namedview>
  <g
     fill="#2e3436"
     id="g732">
    <path
       d="m 5,2.0000943 c 0,0 -0.707031,-0.015625 -1.449219,0.355469 C 2.8125,2.7266563 2,3.6680633 2,5.0000943 l 0.011942,3.0079589 h -2 v 1 h 0.0078125 c -0.0039063,0.265625 0.1015625,0.519531 0.2851565,0.707031 l 2,1.9999998 c 0.390625,0.390625 1.023437,0.390625 1.414062,0 l 2,-1.9999998 c 0.183594,-0.1875 0.289063,-0.441406 0.289063,-0.707031 h 0.00391 v -1 h -2 V 4.8853291 C 4.1174112,4.0845481 4.5,4.0000943 5,4.0000943 h 5 c 0.550781,0 1,-0.449219 1,-1 0,-0.550781 -0.449219,-1 -1,-1 z"
       id="path730"
       sodipodi:nodetypes="ccscccccssccccccssssc" />
    <use
       x="0"
       y="0"
       xlink:href="#path730"
       id="use886"
       transform="rotate(180,8,8.0614089)" />
  </g>
</svg>
