<?xml version="1.0" encoding="UTF-8" standalone="no"?>
<svg
   height="16px"
   viewBox="0 0 16 16"
   width="16px"
   sodipodi:docname="repost-symbolic.svg"
   inkscape:version="1.2.1 (9c6d41e410, 2022-07-14)"
   version="1.1"
   id="svg16"
   xmlns:inkscape="http://www.inkscape.org/namespaces/inkscape"
   xmlns:sodipodi="http://sodipodi.sourceforge.net/DTD/sodipodi-0.dtd"
   xmlns:xlink="http://www.w3.org/1999/xlink"
   xmlns="http://www.w3.org/2000/svg"
   xmlns:svg="http://www.w3.org/2000/svg">
  <defs
     id="defs18" />
  <sodipodi:namedview
     pagecolor="#ffffff"
     bordercolor="#111111"
     borderopacity="1"
     inkscape:pageshadow="0"
     inkscape:pageopacity="0"
     inkscape:pagecheckerboard="1"
     showgrid="false"
     inkscape:zoom="25.0625"
     inkscape:cx="3.3715711"
     inkscape:cy="15.062344"
     inkscape:window-width="2560"
     inkscape:window-height="1372"
     inkscape:window-x="0"
     inkscape:window-y="32"
     inkscape:window-maximized="1"
     inkscape:current-layer="g14"
     id="namedview2"
     inkscape:showpageshadow="2"
     inkscape:deskcolor="#d1d1d1" />
  <g
     fill="#474747"
     stroke-width="2.05545"
     transform="matrix(0.97302294 0 0 0.97302255 -5975.9018 -1410.419)"
     id="g14">
    <g
       stroke-width="1.98819"
       id="g12"
       transform="matrix(1.0048041,0,0,1,-29.537016,0.96722218)">
      <g
         id="g6109">
        <path
           d="m 6154.9125,1461.4023 v -1.5416 h -10.2281 c 0,0 -1.6355,-0.2887 -1.6506,-2.0554 -0.015,-1.7667 1.1392,-2.5693 1.1392,-2.5693 l -1.0228,-1.0278 c 0,0 -1.5249,0.4715 -1.5129,3.5971 0.012,3.1256 3.0471,3.597 3.0471,3.597 z"
           font-variant-ligatures="normal"
           font-variant-position="normal"
           font-variant-caps="normal"
           font-variant-numeric="normal"
           font-variant-alternates="normal"
           font-feature-settings="normal"
           text-indent="0"
           text-align="start"
           text-decoration-line="none"
           text-decoration-style="solid"
           text-decoration-color="#000000"
           text-transform="none"
           text-orientation="mixed"
           shape-padding="0"
           isolation="auto"
           mix-blend-mode="normal"
           id="path8"
           sodipodi:nodetypes="ccczcczcc" />
        <path
           d="m 6152.1159,1463.9604 -0.011,-0.6055 c 0,-0.2486 0.1258,-0.5117 0.3028,-0.6954 l 1.8753,-2.0367 -1.8389,-2.0064 c -0.1761,-0.1838 -0.2913,-0.4471 -0.3028,-0.6965 l -0.03,-0.6439 h 0.4297 c 0.2998,9e-4 0.534,0.087 0.7255,0.2728 l 2.6688,3.0745 -2.8125,3.0778 c -0.1916,0.1838 -0.4257,0.2708 -0.7255,0.2708 z"
           text-indent="0"
           text-align="start"
           text-decoration-line="none"
           text-transform="none"
           id="path10"
           sodipodi:nodetypes="cscccscsccccc"
           style="stroke-width:1.98822" />
      </g>
    </g>
    <use
       x="0"
       y="0"
       xlink:href="#g12"
       id="use6156"
       transform="rotate(180,6149.8139,1457.7365)" />
  </g>
</svg>
